<?xml version="1.0" encoding="UTF-8" standalone="no"?>
<svg
   xmlns:dc="http://purl.org/dc/elements/1.1/"
   xmlns:cc="http://creativecommons.org/ns#"
   xmlns:rdf="http://www.w3.org/1999/02/22-rdf-syntax-ns#"
   xmlns:svg="http://www.w3.org/2000/svg"
   xmlns="http://www.w3.org/2000/svg"
   id="svg645"
   version="1.1"
   viewBox="0 0 27.781464 18.520664"
   height="18.520664mm"
   width="27.781464mm">
  <defs
     id="defs639" />
  <metadata
     id="metadata642">
    <rdf:RDF>
      <cc:Work
         rdf:about="">
        <dc:format>image/svg+xml</dc:format>
        <dc:type
           rdf:resource="http://purl.org/dc/dcmitype/StillImage" />
        <dc:title></dc:title>
      </cc:Work>
    </rdf:RDF>
  </metadata>
  <g
     transform="translate(-103.0642,-413.46728)"
     id="layer1">
    <path
       id="path3796"
       d="m 129.91853,431.9556 c -0.60809,-0.0741 -11.23694,-1.1872 -11.33609,-1.1872 -0.11428,0 -0.11443,2e-4 -0.11443,0.15776 0,0.22078 -0.0637,0.33552 -0.28973,0.5222 -0.67915,0.56083 -1.75841,0.56228 -2.43536,0.003 -0.24053,-0.19863 -0.2669,-0.24344 -0.29129,-0.49513 -0.0188,-0.19377 -0.024,-0.20349 -0.10649,-0.19795 -0.0477,0.004 -2.72558,0.27726 -5.95081,0.60899 -3.57515,0.36771 -5.90246,0.59439 -5.96244,0.58072 -0.23253,-0.053 -0.35372,-0.31022 -0.24186,-0.51338 0.12587,-0.2286 -0.27972,-0.17304 5.92671,-0.81184 3.12981,-0.32213 5.69698,-0.59042 5.70481,-0.59619 0.0297,-0.0219 -0.13018,-0.15198 -0.46532,-0.37859 -1.82441,-1.2336 -4.03188,-1.69493 -6.24575,-1.30529 -1.49353,0.26286 -2.91696,0.95766 -4.09188,1.99732 -0.40908,0.36197 -0.45944,0.39675 -0.57452,0.39675 -0.2831,0 -0.47198,-0.31657 -0.33337,-0.55875 0.0708,-0.12378 0.81699,-0.76895 1.20084,-1.03832 2.16172,-1.51702 4.79938,-2.03808 7.37289,-1.45648 1.21979,0.27567 2.34807,0.7891 3.38195,1.539 0.40239,0.29187 1.06493,0.88387 1.10958,0.99146 0.0201,0.0485 0.0366,0.21186 0.0366,0.36291 0,0.30353 0.021,0.33854 0.27759,0.46219 0.17412,0.0839 0.76274,0.0839 0.93686,0 0.25656,-0.12365 0.27759,-0.15866 0.27759,-0.46219 0,-0.15105 0.0165,-0.3138 0.0366,-0.36166 0.0201,-0.0479 0.20732,-0.23811 0.41596,-0.42277 1.36478,-1.20795 2.94178,-1.94391 4.76956,-2.22583 0.60139,-0.0928 1.68727,-0.11432 2.30746,-0.0457 1.60898,0.17775 3.13925,0.7591 4.40672,1.6741 0.52885,0.3818 1.13881,0.93607 1.18569,1.07744 0.10017,0.30209 -0.21363,0.59917 -0.49115,0.46497 -0.0353,-0.017 -0.22578,-0.1758 -0.4232,-0.35269 -1.56874,-1.40569 -3.52331,-2.15566 -5.61807,-2.15566 -1.29695,0 -2.42278,0.24297 -3.57081,0.77064 -0.63286,0.29089 -1.67999,0.95338 -1.60844,1.01762 0.0221,0.0198 11.19618,1.22144 11.35845,1.22144 0.0706,0 0.24389,0.16976 0.27407,0.2685 0.0452,0.1478 -0.009,0.30478 -0.13866,0.40353 -0.11659,0.0886 -0.25653,0.0977 -0.6903,0.0449 z m -13.51587,-2.49611 c -0.32981,-0.3809 -1.11051,-1.07516 -1.52734,-1.35823 -1.53488,-1.04233 -3.28045,-1.55169 -5.11634,-1.49295 -1.18179,0.0378 -2.06328,0.23698 -3.14054,0.70956 -0.59832,0.2625 -1.10191,0.54864 -1.59379,0.90561 -0.26004,0.18872 -0.33077,0.22493 -0.43932,0.22493 -0.10187,0 -0.14847,-0.0205 -0.21921,-0.0965 -0.10814,-0.11612 -0.12185,-0.32124 -0.0283,-0.42403 0.08,-0.088 8.08494,-6.44262 8.3132,-6.59937 0.35845,-0.24616 0.87903,-0.44885 1.36698,-0.53226 0.47308,-0.0809 1.53536,0.0231 1.53536,0.15024 0,0.0247 -0.32408,0.3649 -0.72017,0.75589 -0.95558,0.94328 -1.00464,0.99576 -1.05196,1.12532 -0.0224,0.0611 -0.35884,0.65792 -0.74774,1.32601 -0.65511,1.12541 -0.7071,1.22664 -0.7071,1.3768 0,0.30106 0.197,0.50383 0.48949,0.50383 0.16402,0 0.22767,-0.0316 1.39123,-0.69192 0.67064,-0.38056 1.2916,-0.725 1.37992,-0.76544 0.11113,-0.0509 0.29723,-0.20951 0.60443,-0.51518 0.24413,-0.24292 0.45806,-0.43375 0.47541,-0.42406 0.0401,0.0224 0.0425,6.09603 0.002,6.09603 -0.016,0 -0.13599,-0.12345 -0.26663,-0.27432 z m 0.81726,-3.07241 0.001,-3.34673 1.14406,-1.12865 1.14407,-1.12864 0.23414,0.006 c 0.4828,0.0132 1.17549,0.24948 1.60884,0.5487 0.26552,0.18333 8.22013,6.49975 8.30226,6.59248 0.10335,0.11665 0.0875,0.31192 -0.0347,0.42843 -0.093,0.0887 -0.11322,0.0943 -0.28313,0.0789 -0.16183,-0.0146 -0.21799,-0.0416 -0.48578,-0.23327 -1.20156,-0.85994 -2.49759,-1.35681 -4.03289,-1.54613 -0.39006,-0.0481 -1.42559,-0.0474 -1.83903,0.001 -1.28667,0.15152 -2.40204,0.52513 -3.46808,1.1617 -0.71631,0.42773 -1.4585,1.04293 -1.96225,1.62647 -0.13359,0.15475 -0.26241,0.28235 -0.28626,0.28353 -0.0344,0.002 -0.0432,-0.68646 -0.0423,-3.34457 z m -4.33838,-0.93765 c 0,-0.0113 0.29636,-0.53095 0.65859,-1.15468 0.36223,-0.62374 0.68092,-1.18231 0.70821,-1.24127 0.0281,-0.0607 1.93884,-1.97505 4.4074,-4.41571 2.39678,-2.3697 4.35778,-4.33205 4.35778,-4.36079 0,-0.0579 -0.10472,-0.15603 -0.16652,-0.15603 -0.0218,0 -0.58169,0.53611 -1.24423,1.19135 -1.11792,1.1056 -1.21283,1.19134 -1.31878,1.19134 -0.14142,0 -0.2394,-0.11345 -0.20499,-0.23734 0.0126,-0.0454 0.62759,-0.6791 1.39748,-1.44003 l 1.37497,-1.35899 0.2406,0.23278 c 0.13234,0.12804 0.25619,0.23279 0.27523,0.23279 0.0191,0 0.10245,-0.054 0.18536,-0.11989 0.24907,-0.19809 0.53408,-0.24299 0.81412,-0.12828 0.2044,0.0837 0.29963,0.16706 0.40897,0.35789 0.12607,0.22003 0.12881,0.53793 0.006,0.74804 -0.0999,0.1716 -9.33629,9.31663 -9.43267,9.3394 -0.034,0.008 -0.58538,0.31283 -1.22528,0.67733 -1.07489,0.61227 -1.24269,0.69897 -1.24269,0.64209 z"
       style="fill:#38247a;stroke-width:0.03298239" />
  </g>
</svg>
