<?xml version="1.0" encoding="UTF-8" standalone="no"?>
<svg
   xmlns:dc="http://purl.org/dc/elements/1.1/"
   xmlns:cc="http://creativecommons.org/ns#"
   xmlns:rdf="http://www.w3.org/1999/02/22-rdf-syntax-ns#"
   xmlns:svg="http://www.w3.org/2000/svg"
   xmlns="http://www.w3.org/2000/svg"
   xmlns:sodipodi="http://sodipodi.sourceforge.net/DTD/sodipodi-0.dtd"
   xmlns:inkscape="http://www.inkscape.org/namespaces/inkscape"
   id="svg8"
   version="1.1"
   viewBox="0 0 67.73333 67.73333"
   height="67.73333mm"
   width="67.73333mm"
   sodipodi:docname="ok-hand.svg"
   inkscape:version="0.92.3 (2405546, 2018-03-11)">
  <sodipodi:namedview
     pagecolor="#ffffff"
     bordercolor="#666666"
     borderopacity="1"
     objecttolerance="10"
     gridtolerance="10"
     guidetolerance="10"
     inkscape:pageopacity="0"
     inkscape:pageshadow="2"
     inkscape:window-width="1920"
     inkscape:window-height="986"
     id="namedview13"
     showgrid="false"
     inkscape:zoom="0.92187505"
     inkscape:cx="127.99999"
     inkscape:cy="127.99999"
     inkscape:window-x="0"
     inkscape:window-y="27"
     inkscape:window-maximized="1"
     inkscape:current-layer="svg8" />
  <defs
     id="defs2" />
  <metadata
     id="metadata5">
    <rdf:RDF>
      <cc:Work
         rdf:about="">
        <dc:format>image/svg+xml</dc:format>
        <dc:type
           rdf:resource="http://purl.org/dc/dcmitype/StillImage" />
        <dc:title />
      </cc:Work>
    </rdf:RDF>
  </metadata>
  <g
     id="layer1"
     transform="translate(-72.722617,-118.74642)">
    <path
       id="path89"
       d="m 104.47261,185.50275 c -1.63044,-0.27408 -4.638765,-1.20213 -5.793414,-1.78723 -1.932097,-0.97907 -4.681999,-3.36392 -7.138039,-6.19047 -2.413697,-2.77782 -7.527497,-10.31647 -8.101271,-11.94272 -0.196192,-0.55607 -0.546724,-2.29002 -0.77896,-3.85323 -0.232237,-1.56321 -0.658362,-3.37598 -0.946945,-4.02837 -1.054172,-2.38313 -0.473654,-4.12628 1.703464,-5.11507 1.338995,-0.60814 2.455404,-0.62551 4.438672,-0.069 2.842603,0.7976 4.92237,3.43446 6.26304,7.94069 0.491937,1.65349 0.747377,2.05996 2.032896,3.23485 1.620282,1.48085 3.022786,2.04481 4.429097,1.78098 1.06846,-0.20044 5.88531,-2.50489 7.09127,-3.39256 0.45128,-0.33218 0.99688,-0.94359 1.21242,-1.35868 0.35751,-0.68849 1.13429,-2.98687 1.14116,-3.37652 0.002,-0.0894 -0.56268,-0.3746 -1.25391,-0.63384 -2.12057,-0.7953 -3.56865,-1.61249 -5.22675,-2.94959 l -1.58874,-1.28117 -3.306055,0.0299 c -1.81833,0.0165 -4.318085,0.18446 -5.555012,0.37334 -2.108757,0.32201 -2.324972,0.30973 -3.468282,-0.19692 -2.582886,-1.14459 -3.592852,-3.98069 -2.287677,-6.42405 0.862839,-1.61529 1.833396,-2.19914 4.599189,-2.7667 1.291067,-0.26494 3.299895,-0.78679 4.464061,-1.15966 2.972377,-0.95203 4.785746,-0.88056 8.450986,0.33305 1.59211,0.52717 3.89047,1.38616 5.10747,1.90887 1.21701,0.52272 2.28494,0.87819 2.37318,0.78995 0.33684,-0.33685 -0.50942,-2.30315 -1.51586,-3.5221 -0.57761,-0.69958 -1.71457,-2.14563 -2.52657,-3.21345 -0.812,-1.06782 -1.84463,-2.13939 -2.29472,-2.38125 -4.69056,-2.52051 -5.31543,-7.98356 -1.07919,-9.43497 l 1.0097,-0.34594 0.14347,-1.97926 c 0.11766,-1.62313 0.27513,-2.15187 0.87522,-2.93863 0.91891,-1.20475 2.47535,-2.01283 3.8769,-2.01283 0.91471,0 1.27101,0.17999 2.32564,1.17482 0.68499,0.64615 2.13841,2.54794 3.22981,4.2262 1.09141,1.67825 3.10165,4.74406 4.46721,6.8129 2.55707,3.87398 3.72778,6.05538 3.73229,6.95442 0.007,1.36773 4.04368,11.89172 5.9425,15.49207 0.96938,1.83807 1.55196,4.14862 1.37378,5.44857 -0.0855,0.62417 -0.92226,3.07663 -1.85935,5.44992 -0.93709,2.37328 -2.20067,6.04146 -2.80795,8.15151 -1.37375,4.77321 -2.22577,6.42619 -4.04139,7.84063 -1.76362,1.37392 -2.41411,1.69422 -5.48417,2.70038 -4.43889,1.45478 -6.75424,1.89387 -9.78958,1.85652 -1.52797,-0.0188 -3.07578,-0.0842 -3.43959,-0.14536 z"
       style="fill:#bebebe;stroke-width:0.26458332;opacity:1" />
    <path
       id="path87"
       d="m 103.84435,185.01029 c -4.298043,-0.85401 -6.545791,-2.05107 -9.714663,-5.17363 -2.011988,-1.98259 -5.008858,-5.61847 -6.191853,-7.51212 -0.545457,-0.87312 -1.577118,-2.44686 -2.29258,-3.49719 -1.728653,-2.53774 -1.952573,-3.13667 -2.587859,-6.92183 -0.298055,-1.77587 -0.78078,-3.75319 -1.072723,-4.39405 -0.670884,-1.47268 -0.673649,-2.52876 -0.0088,-3.37393 1.221305,-1.55264 3.863344,-1.95513 6.458998,-0.98397 2.383745,0.89187 3.988502,3.0897 5.178969,7.09297 0.651666,2.19141 1.934839,3.82743 3.909675,4.98476 1.729228,1.0134 3.251716,0.79719 6.944416,-0.98616 3.50784,-1.69407 4.75397,-2.86801 5.39875,-5.08595 0.60587,-2.08411 0.57489,-2.18534 -0.82997,-2.71222 -2.14408,-0.80412 -3.57471,-1.61115 -5.28993,-2.98409 l -1.6519,-1.32226 h -3.345274 c -1.8399,0 -4.224597,0.15269 -5.299325,0.33932 -1.915888,0.3327 -3.146138,0.23588 -4.197396,-0.33035 -2.265033,-1.21999 -2.709597,-4.79273 -0.842685,-6.77223 0.709143,-0.75191 1.199995,-0.9752 2.966008,-1.34923 1.163929,-0.24651 3.377593,-0.79699 4.919252,-1.22329 3.321304,-0.9184 3.99713,-0.94282 6.73241,-0.24325 1.61881,0.41402 7.23505,2.52792 9.58072,3.60609 0.20282,0.0932 0.33073,-0.0454 0.33073,-0.35832 0,-1.19188 -0.91954,-3.02442 -2.45654,-4.8956 -0.90448,-1.10114 -2.06122,-2.57693 -2.57054,-3.27954 -0.50933,-0.70261 -1.40207,-1.5442 -1.98387,-1.87019 -4.51944,-2.53234 -4.71713,-7.88942 -0.32461,-8.79674 l 0.85327,-0.17625 -0.091,-1.61487 c -0.11366,-2.01741 0.4396,-3.28939 1.88675,-4.3377 2.77748,-2.01199 4.38903,-1.06793 8.12611,4.76036 0.94589,1.47519 2.80442,4.31712 4.13007,6.3154 2.77312,4.18019 3.39643,5.33816 3.66325,6.80546 0.47357,2.60435 3.84597,11.34063 6.16966,15.98264 0.79413,1.58643 0.99761,2.3135 1.0747,3.84007 0.0909,1.79965 0.0172,2.08018 -1.66276,6.32983 -0.96682,2.44569 -2.2408,6.13501 -2.83107,8.19847 -1.42855,4.99395 -2.07089,6.30347 -3.73854,7.62167 -1.78215,1.4087 -2.68632,1.84376 -6.14385,2.95623 -5.41877,1.7435 -9.27285,2.1412 -13.19597,1.36169 z"
       style="fill:#f9f70c;stroke-width:0.26458332;opacity:1" />
    <path
       id="path85"
       d="m 103.84435,185.01029 c -4.298043,-0.85401 -6.545791,-2.05107 -9.714663,-5.17363 -2.011988,-1.98259 -5.008858,-5.61847 -6.191853,-7.51212 -0.545457,-0.87312 -1.577118,-2.44686 -2.29258,-3.49719 -1.728653,-2.53774 -1.952573,-3.13667 -2.587859,-6.92183 -0.298055,-1.77587 -0.78078,-3.75319 -1.072723,-4.39405 -0.790405,-1.73504 -0.700049,-2.69246 0.346968,-3.67652 0.616974,-0.57987 1.167254,-0.83906 1.852083,-0.87233 0.535871,-0.026 0.97431,0.0114 0.97431,0.0832 0,0.0718 -0.357187,0.43112 -0.79375,0.79846 -0.436562,0.36735 -0.79375,0.90128 -0.79375,1.18652 0,0.28524 0.758253,2.14989 1.685007,4.14366 0.926753,1.99378 1.899103,4.22037 2.160776,4.94797 0.380153,1.05705 1.118281,1.96635 3.672805,4.52454 3.508604,3.51365 5.861135,5.05826 8.770921,5.75878 0.863428,0.20787 2.028498,0.57544 2.589048,0.81683 1.2964,0.55826 7.51906,1.54542 9.43186,1.49625 4.04228,-0.10389 7.10171,-2.9708 8.73031,-8.18095 1.13397,-3.62774 2.54094,-5.55934 5.90351,-8.10479 1.18858,-0.89974 1.87152,-2.08923 1.66711,-2.90365 -0.0805,-0.32057 -0.50761,-1.08165 -0.94923,-1.69129 -0.63776,-0.88039 -0.96764,-1.10843 -1.60353,-1.10843 -1.02724,0 -2.23579,-0.51039 -3.96331,-1.67377 -0.75805,-0.5105 -2.52716,-1.35913 -3.93134,-1.88584 -1.5825,-0.5936 -3.15527,-1.41542 -4.13715,-2.16179 -1.6109,-1.22451 -7.0113,-3.96509 -9.65387,-4.89912 -2.89689,-1.02392 -3.61404,-1.08836 -5.661296,-0.50875 -3.027953,0.85726 -5.234777,1.39545 -6.509538,1.58752 -2.093769,0.31547 -2.910416,1.0523 -2.910416,2.62599 0,0.54793 0.224184,0.96938 0.727604,1.36784 0.647629,0.5126 0.916636,0.55513 2.447395,0.38695 0.945886,-0.10392 2.910417,-0.21247 4.365625,-0.24123 1.455208,-0.0288 3.320526,-0.15034 4.145146,-0.2702 l 1.49932,-0.21791 2.9986,1.71908 c 4.09784,2.34927 5.29238,2.92304 7.82438,3.75827 3.3447,1.10331 3.65038,1.69854 3.86935,7.53438 l 0.14311,3.81412 -1.4366,2.00671 c -0.79012,1.10369 -1.95656,2.44541 -2.59208,2.9816 l -1.15549,0.9749 -3.67912,-0.0601 c -5.44631,-0.089 -7.31354,-0.86906 -12.420991,-5.18928 -2.207314,-1.86709 -2.96869,-3.06523 -3.654234,-5.75049 -0.230524,-0.90296 -0.585197,-2.03405 -0.788164,-2.51354 -0.608786,-1.4382 -2.755686,-4.08038 -3.678768,-4.52745 l -0.863346,-0.41813 1.24106,0.10113 c 1.525936,0.12435 2.026913,0.38246 3.088075,1.59106 1.091322,1.24295 1.959701,2.99381 2.670731,5.38484 0.651667,2.19141 1.93484,3.82743 3.909675,4.98476 1.729229,1.0134 3.251712,0.79719 6.944412,-0.98616 3.50784,-1.69407 4.75397,-2.86801 5.39875,-5.08595 0.60586,-2.08411 0.57489,-2.18534 -0.82997,-2.71222 -2.14408,-0.80412 -3.57471,-1.61115 -5.28992,-2.98409 l -1.65191,-1.32226 h -3.345269 c -1.8399,0 -4.224597,0.15269 -5.299325,0.33932 -2.640184,0.45848 -4.028591,0.12765 -5.337339,-1.27176 -1.291433,-1.3809 -0.945724,-4.0741 0.763838,-5.95059 0.66699,-0.73212 1.158066,-0.95243 3.039263,-1.36353 1.234053,-0.26967 2.499155,-0.42352 2.811336,-0.34188 0.422975,0.11061 0.51281,0.0598 0.352564,-0.19951 -0.160403,-0.25954 -0.07008,-0.31003 0.355501,-0.19874 0.313797,0.0821 0.57054,0.0285 0.57054,-0.11892 0,-0.14747 0.178594,-0.19959 0.396875,-0.11583 0.218281,0.0838 0.396875,0.0242 0.396875,-0.13229 0,-0.15652 0.178594,-0.21605 0.396875,-0.13229 0.218281,0.0838 0.396875,0.0231 0.396875,-0.13484 0,-0.15793 0.232416,-0.22636 0.516481,-0.15208 0.284064,0.0743 0.559115,0.007 0.611223,-0.14916 0.06491,-0.19473 0.786937,-0.1454 2.292927,0.15666 1.209,0.24249 2.293,0.38229 2.40888,0.31066 0.11589,-0.0716 0.25064,-0.0139 0.29945,0.12822 0.0488,0.14214 0.3864,0.29171 0.7502,0.33237 0.36381,0.0407 0.72099,0.13638 0.79375,0.21268 0.29479,0.30914 3.79753,1.55459 4.00739,1.42489 0.12427,-0.0768 0.22595,-0.007 0.22595,0.15617 0,0.1627 0.11906,0.22223 0.26458,0.13229 0.14552,-0.0899 0.26458,-0.0247 0.26458,0.14498 0,0.17012 0.1842,0.23783 0.41062,0.15094 0.26827,-0.10295 0.34495,-0.0513 0.22118,0.14895 -0.12584,0.20361 -0.0442,0.25078 0.24318,0.1405 0.23794,-0.0913 0.61466,0.016 0.83716,0.23852 0.22249,0.22249 0.40635,0.30673 0.40858,0.1872 0.002,-0.11954 0.11489,-0.0421 0.25035,0.17212 0.20895,0.3304 0.27448,0.31603 0.43212,-0.0948 0.36141,-0.94184 -0.62136,-3.14398 -2.33292,-5.22743 -0.91349,-1.11198 -2.07761,-2.59664 -2.58693,-3.29925 -0.50933,-0.70261 -1.40207,-1.5442 -1.98387,-1.87019 -4.51944,-2.53234 -4.71712,-7.88942 -0.32461,-8.79674 l 0.85327,-0.17625 -0.091,-1.61487 c -0.11366,-2.01741 0.4396,-3.28939 1.88675,-4.3377 2.77748,-2.01199 4.38903,-1.06793 8.12611,4.76036 0.94589,1.47519 2.80442,4.31712 4.13007,6.3154 2.77312,4.18019 3.39643,5.33816 3.66325,6.80546 0.47357,2.60435 3.84597,11.34063 6.16966,15.98264 0.79413,1.58643 0.99761,2.3135 1.0747,3.84007 0.0909,1.79965 0.0172,2.08018 -1.66276,6.32983 -0.96682,2.44569 -2.2408,6.13501 -2.83107,8.19847 -1.42855,4.99395 -2.07089,6.30347 -3.73854,7.62167 -1.78215,1.4087 -2.68632,1.84376 -6.14385,2.95623 -5.41877,1.7435 -9.27285,2.1412 -13.19597,1.36169 z m 19.94284,-37.58656 c 0,-0.42211 -1.12877,-4.76664 -1.34191,-5.1649 -0.133,-0.2485 -0.35327,-1.23882 -0.48949,-2.20071 -0.20969,-1.48074 -0.52798,-2.20401 -2.07591,-4.71727 -2.75064,-4.46604 -4.56174,-7.27705 -5.91848,-9.1861 -0.67224,-0.94588 -1.47096,-2.21338 -1.77493,-2.81666 -1.04673,-2.07733 -1.94047,-2.45161 -3.09567,-1.29641 -0.47717,0.47717 -0.64944,0.93562 -0.64944,1.72829 0,1.61708 0.6041,2.76783 2.47809,4.72059 0.96894,1.00966 2.06133,2.50136 2.55213,3.48503 1.33685,2.67933 2.63237,4.48357 3.75086,5.22375 0.87762,0.58078 1.33448,1.3109 3.17216,5.06956 1.18078,2.41508 2.32655,4.59942 2.54616,4.85408 0.3936,0.45643 0.84643,0.61733 0.84643,0.30075 z"
       style="fill:#f3db00;stroke-width:0.26458332;opacity:1" />
    <path
       id="path83"
       d="m 103.84435,185.01029 c -4.298043,-0.85401 -6.545791,-2.05107 -9.714663,-5.17363 -2.011988,-1.98259 -5.008858,-5.61847 -6.191853,-7.51212 -0.545457,-0.87312 -1.577118,-2.44686 -2.29258,-3.49719 -1.728653,-2.53774 -1.952573,-3.13667 -2.587859,-6.92183 -0.298055,-1.77587 -0.78078,-3.75319 -1.072723,-4.39405 -0.894457,-1.96345 -0.67156,-3.06241 0.839347,-4.13827 0.463135,-0.32978 0.73309,-0.42736 0.599902,-0.21684 -0.133188,0.21052 -0.253691,0.4423 -0.267784,0.51506 -0.01409,0.0728 -0.114991,0.44724 -0.224217,0.83219 -0.147386,0.51942 0.02213,1.20166 0.657419,2.64583 0.470807,1.07026 1.367591,3.35121 1.992853,5.06877 1.307532,3.59171 2.55734,5.50846 5.611577,8.60611 3.729236,3.78224 8.913141,7.13963 13.014261,8.42876 1.83311,0.57621 7.18883,0.64707 9.12812,0.12077 5.09264,-1.38209 7.19485,-2.96984 9.20732,-6.95406 0.68799,-1.36208 1.48811,-3.429 1.77805,-4.59316 0.44129,-1.77188 0.85633,-2.60007 2.54793,-5.08424 1.67219,-2.45566 2.04208,-3.18928 2.14427,-4.25282 0.1317,-1.37057 -0.38492,-2.73561 -1.69834,-4.48742 -0.58783,-0.78405 -0.7705,-0.8599 -2.07083,-0.8599 -0.78437,0 -1.49792,-0.11616 -1.58566,-0.25814 -0.32339,-0.52324 -3.49511,-2.06538 -5.16336,-2.5105 -2.12233,-0.56628 -4.03255,-1.49817 -5.23485,-2.5538 -0.50256,-0.44125 -1.97307,-1.28755 -3.2678,-1.88066 -2.67095,-1.22355 -2.99211,-1.63818 -0.4774,-0.61637 1.87735,0.76284 1.92914,0.77542 1.70588,0.41417 -0.0945,-0.15286 0.0182,-0.19254 0.27115,-0.0955 0.35018,0.13438 0.36544,0.21394 0.0799,0.41679 -0.25178,0.17888 -0.18222,0.2133 0.24276,0.12015 0.32763,-0.0718 0.52896,-0.0226 0.44741,0.10934 -0.0816,0.13195 -0.0184,0.23991 0.14023,0.23991 0.54332,0 0.61497,-0.85132 0.18614,-2.21172 -0.27464,-0.87126 -1.02635,-2.08794 -2.08981,-3.38248 -0.91349,-1.11198 -2.07761,-2.59664 -2.58693,-3.29925 -0.50933,-0.70261 -1.40207,-1.5442 -1.98387,-1.87019 -4.51944,-2.53234 -4.71712,-7.88942 -0.32461,-8.79674 l 0.85327,-0.17625 -0.091,-1.61487 c -0.11366,-2.01741 0.4396,-3.28939 1.88675,-4.3377 2.68365,-1.94403 4.11652,-1.19753 7.66513,3.99337 1.98267,2.90024 2.89949,4.60834 2.63246,4.90445 -0.10291,0.11411 -0.0643,0.13792 0.0858,0.0529 0.15007,-0.085 1.2419,1.29489 2.42628,3.06643 2.50653,3.74916 2.81468,4.31677 2.56389,4.72255 -0.10564,0.17093 -0.0682,0.22757 0.087,0.13164 0.16123,-0.0996 0.34142,0.26318 0.44149,0.88897 0.39419,2.46516 3.80862,11.35211 6.18708,16.10354 0.79413,1.58643 0.99761,2.3135 1.0747,3.84007 0.0909,1.79965 0.0172,2.08018 -1.66276,6.32983 -0.96682,2.44569 -2.2408,6.13501 -2.83107,8.19847 -1.42855,4.99395 -2.07089,6.30347 -3.73854,7.62167 -1.78215,1.4087 -2.68632,1.84376 -6.14385,2.95623 -5.41877,1.7435 -9.27285,2.1412 -13.19597,1.36169 z m 22.32409,-34.49665 c 0,-0.13605 -0.13209,-0.58253 -0.29354,-0.99218 -1.19287,-3.0267 -2.73984,-7.7094 -3.13052,-9.47608 -0.40928,-1.85085 -0.84256,-2.73137 -3.45017,-7.01146 -1.64015,-2.69214 -3.72602,-5.96635 -4.63524,-7.27604 -0.90923,-1.30969 -1.90663,-2.88329 -2.21645,-3.49688 -0.30982,-0.6136 -0.77127,-1.22191 -1.02546,-1.3518 -0.91718,-0.46868 -2.04452,-0.53816 -2.56325,-0.15796 -0.28247,0.20704 -0.41285,0.37643 -0.28972,0.37643 0.12313,0 0.0167,0.22888 -0.23644,0.50863 -1.09446,1.20937 -0.75682,3.86999 0.76354,6.01668 0.49856,0.70394 1.58808,2.41099 2.42116,3.79344 0.83308,1.38245 2.17956,3.38696 2.99217,4.45447 0.81261,1.06751 1.61565,2.13908 1.78454,2.38125 0.1689,0.24218 0.87237,2.16673 1.56328,4.27678 1.20506,3.68028 1.31866,3.90152 2.79064,5.43483 1.14939,1.19728 1.91899,1.74062 3.06693,2.16528 1.68238,0.62237 2.45853,0.73432 2.45853,0.35461 z m -26.773247,16.92048 c -0.391487,-0.1181 -1.738901,-0.96098 -2.994251,-1.87305 -2.481637,-1.80303 -3.109561,-2.70381 -3.953821,-5.67194 -0.487679,-1.71452 -1.361565,-3.38851 -2.589801,-4.96094 -0.426252,-0.5457 -0.68271,-0.99219 -0.569909,-0.99219 0.112802,0 -0.02602,-0.18435 -0.308496,-0.40968 -0.447186,-0.35672 -0.401292,-0.35526 0.354956,0.0113 0.511286,0.2478 0.793757,0.54196 0.686724,0.71515 -0.104605,0.16925 -0.06234,0.22034 0.09952,0.12031 0.356168,-0.22012 1.496364,1.12393 2.298563,2.70953 0.658007,1.30059 1.871154,4.97001 1.823539,5.51568 -0.01573,0.18034 0.05766,0.27456 0.163105,0.20939 0.250364,-0.15473 2.188353,1.82951 1.985241,2.03262 -0.08542,0.0854 0.06099,0.13746 0.325347,0.11563 0.264363,-0.0218 0.459399,0.0836 0.433413,0.23434 -0.05511,0.31962 0.50963,0.41964 2.696499,0.47757 1.428628,0.0378 1.896018,-0.10524 4.581848,-1.40276 3.55066,-1.71532 4.79211,-2.88074 5.43897,-5.10586 0.60586,-2.08411 0.57489,-2.18534 -0.82997,-2.71222 -2.14408,-0.80412 -3.57471,-1.61115 -5.28992,-2.98409 l -1.65191,-1.32226 h -3.345273 c -1.8399,0 -4.224597,0.15269 -5.299325,0.33933 -2.650894,0.46033 -4.027349,0.12889 -5.35366,-1.28914 -0.696464,-0.74463 -1.155688,-3.34022 -0.590966,-3.34022 0.164036,0 0.298246,-0.2311 0.298246,-0.51356 0,-0.28245 0.09149,-0.57009 0.203307,-0.6392 0.111819,-0.0691 0.1609,0.31903 0.109069,0.86253 -0.203769,2.13672 2.047958,3.42567 5.13289,2.93819 0.861406,-0.13611 3.173536,-0.28109 5.138067,-0.32217 4.083665,-0.0854 3.904565,-0.14579 8.895135,3.00031 1.43783,0.90643 3.32862,1.8707 4.20174,2.14283 2.03771,0.63509 2.65249,1.0504 2.99059,2.02029 0.29484,0.84578 0.16196,1.04594 -1.29328,1.94804 -0.44325,0.27476 -0.88942,0.98749 -1.26777,2.02516 -0.32111,0.88065 -0.69794,1.67171 -0.83741,1.75791 -0.13948,0.0862 -0.25359,0.43762 -0.25359,0.78093 0,0.34331 -0.074,0.81697 -0.16438,1.05258 -0.28911,0.75342 -2.47433,1.51044 -5.78874,2.00538 -0.87313,0.13038 -2.12329,0.35506 -2.77813,0.49927 -1.40122,0.30859 -1.74565,0.31179 -2.696171,0.025 z M 89.391366,144.58236 c 0,-0.0744 0.922735,-0.33218 2.050521,-0.57286 1.127786,-0.24068 2.288646,-0.49472 2.579687,-0.56455 0.43206,-0.10365 0.456337,-0.076 0.132292,0.15092 -0.218281,0.15282 -0.671792,0.27969 -1.007802,0.28191 -0.33601,0.002 -0.542493,0.11478 -0.458851,0.25012 0.08364,0.13534 -0.236753,0.22848 -0.711989,0.20699 -0.475237,-0.0215 -1.251019,0.0558 -1.723962,0.17183 -0.472943,0.116 -0.859896,0.15004 -0.859896,0.0756 z m 17.332074,-0.16833 c -0.0927,-0.14998 0.0135,-0.19434 0.24897,-0.10398 0.45837,0.17589 0.54224,0.36554 0.16165,0.36554 -0.13693,0 -0.32171,-0.1177 -0.41062,-0.26156 z m -11.56085,-1.2421 c 0.190996,-0.0764 0.419199,-0.067 0.507118,0.0209 0.08792,0.0879 -0.06835,0.15045 -0.347266,0.13896 -0.308224,-0.0127 -0.370919,-0.0754 -0.159852,-0.15985 z m 2.645833,-0.79375 c 0.190996,-0.0764 0.419199,-0.067 0.507118,0.0209 0.08792,0.0879 -0.06835,0.15045 -0.347265,0.13896 -0.308225,-0.0127 -0.37092,-0.0754 -0.159853,-0.15985 z m 1.179124,-0.2672 c 0.257431,-0.0671 0.614619,-0.0627 0.79375,0.01 0.17913,0.0725 -0.03149,0.12737 -0.468056,0.12197 -0.436563,-0.005 -0.583125,-0.0647 -0.325694,-0.13177 z"
       style="fill:#fcac20;stroke-width:0.26458332;opacity:1" />
    <path
       id="path81"
       d="m 105.00178,184.97491 c -1.82986,-0.30391 -4.95517,-1.22971 -6.086418,-1.80296 -3.173081,-1.60792 -7.629705,-6.3342 -11.504629,-12.20074 -3.484951,-5.27613 -3.50445,-5.32255 -4.132655,-9.83918 -0.155147,-1.11546 -0.569532,-2.71105 -0.920856,-3.54576 -0.780395,-1.85414 -0.793589,-2.32376 -0.0904,-3.21771 0.714639,-0.90852 1.066044,-0.89022 0.715954,0.0373 -0.23349,0.61859 -0.140015,1.04631 0.592683,2.71198 0.478442,1.08766 1.381473,3.38284 2.006735,5.1004 1.307532,3.59171 2.55734,5.50846 5.611577,8.60611 3.729236,3.78224 8.913149,7.13963 13.014259,8.42876 1.83311,0.57621 7.18883,0.64707 9.12812,0.12077 5.09264,-1.38209 7.19485,-2.96984 9.20732,-6.95406 0.68799,-1.36208 1.48811,-3.429 1.77805,-4.59316 0.44129,-1.77188 0.85633,-2.60007 2.54793,-5.08424 1.67219,-2.45566 2.04208,-3.18928 2.14427,-4.25282 0.1317,-1.37057 -0.38492,-2.73561 -1.69834,-4.48742 -0.58783,-0.78405 -0.7705,-0.8599 -2.07083,-0.8599 -0.78437,0 -1.49792,-0.11616 -1.58566,-0.25814 -0.32339,-0.52324 -3.49511,-2.06538 -5.16336,-2.5105 -2.12233,-0.56628 -4.03255,-1.49817 -5.23485,-2.5538 -0.50256,-0.44125 -1.97307,-1.28755 -3.2678,-1.88066 -1.29473,-0.59311 -2.30586,-1.12658 -2.24695,-1.1855 0.0589,-0.0589 1.18226,0.33261 2.49633,0.87006 2.96796,1.21387 3.31082,1.14153 2.85077,-0.60151 -0.45033,-1.70618 -1.0473,-2.80942 -2.21924,-4.10126 -0.53747,-0.59246 -1.57253,-1.90924 -2.30014,-2.92618 -0.9358,-1.30792 -1.71003,-2.06405 -2.64583,-2.58396 -4.14594,-2.30343 -4.20915,-7.09993 -0.10811,-8.20423 l 1.10324,-0.29707 -0.14907,-1.25865 c -0.19228,-1.62349 0.14565,-3.08671 0.89776,-3.8873 0.70475,-0.75017 1.32941,-0.87134 0.65601,-0.12725 -1.09446,1.20937 -0.75682,3.86999 0.76354,6.01668 0.49856,0.70394 1.58808,2.41099 2.42116,3.79344 0.83308,1.38245 2.17956,3.38696 2.99217,4.45447 0.81261,1.06751 1.61565,2.13908 1.78454,2.38125 0.1689,0.24218 0.87237,2.16673 1.56328,4.27678 1.20778,3.68858 1.3159,3.89865 2.80509,5.44988 1.29495,1.34889 1.85005,1.71595 3.38578,2.23879 1.01029,0.34395 1.91677,0.54548 2.0144,0.44785 0.15754,-0.15753 -0.66295,-2.6677 -2.31364,-7.07819 -0.29955,-0.80036 -0.75231,-2.40771 -1.00614,-3.57187 -0.40536,-1.85915 -0.82433,-2.71219 -3.44362,-7.01146 -1.64015,-2.69214 -3.72602,-5.96635 -4.63524,-7.27604 -0.90923,-1.30969 -1.90663,-2.88329 -2.21645,-3.49688 -0.67011,-1.32716 -1.38845,-1.77244 -2.51213,-1.55718 -0.5935,0.11369 -0.71531,0.0849 -0.43069,-0.10163 0.64833,-0.425 1.86187,-0.30538 2.80304,0.2763 0.85431,0.52799 4.57923,5.5038 5.53439,7.39293 0.25752,0.50932 1.6234,2.65826 3.0353,4.77541 2.18438,3.27549 2.63761,4.14328 3.04016,5.82083 0.80336,3.34792 4.28634,12.30999 6.41025,16.49426 0.45165,0.88979 0.7285,1.94033 0.80955,3.072 0.11518,1.60805 0.0205,1.98626 -1.45715,5.82083 -1.70572,4.42644 -2.61558,7.12702 -3.52107,10.45104 -1.3775,5.05676 -3.13173,6.75056 -8.90198,8.59527 -5.11123,1.63403 -9.1596,2.18719 -12.25041,1.67385 z m -5.606587,-17.54079 c -0.391487,-0.1181 -1.738901,-0.96098 -2.994251,-1.87305 -2.481637,-1.80303 -3.109561,-2.70381 -3.953821,-5.67194 -0.49081,-1.72552 -1.362476,-3.38992 -2.614338,-4.99192 l -0.799539,-1.02317 0.829291,0.42884 c 1.120805,0.57959 2.743275,3.40845 3.606335,6.28782 0.627537,2.09361 0.811186,2.40337 2.150735,3.62764 0.982702,0.89814 1.930994,1.48558 2.88204,1.78538 1.336439,0.42127 1.498385,0.42044 2.834305,-0.0145 2.44225,-0.79507 6.47924,-3.0182 7.46783,-4.11245 0.60326,-0.66774 1.1114,-1.64795 1.46459,-2.82525 0.65102,-2.17001 0.6282,-2.20605 -2.08723,-3.29704 -1.84785,-0.74242 -2.90899,-1.40575 -5.25027,-3.28201 -0.9736,-0.78023 -1.29025,-0.89602 -2.11667,-0.77405 -0.53448,0.0789 -2.28148,0.18727 -3.882209,0.24083 -1.600729,0.0536 -3.69192,0.18207 -4.647091,0.28557 -2.009504,0.21775 -2.908625,-0.11506 -4.083748,-1.51162 -0.651118,-0.77381 -0.70915,-1.00518 -0.57591,-2.29615 0.08149,-0.78959 0.24717,-1.53463 0.368169,-1.65563 0.120999,-0.121 0.176933,0.2316 0.124296,0.78354 -0.205308,2.15286 2.035694,3.44274 5.131425,2.95356 0.861406,-0.1361 3.173536,-0.28108 5.138067,-0.32216 4.083671,-0.0854 3.904571,-0.14579 8.895131,3.00031 1.43783,0.90643 3.32862,1.8707 4.20174,2.14283 2.03771,0.63509 2.65249,1.0504 2.99059,2.02029 0.29484,0.84578 0.16196,1.04594 -1.29328,1.94804 -0.44325,0.27476 -0.88942,0.98749 -1.26777,2.02516 -0.32111,0.88065 -0.69794,1.67171 -0.83741,1.75791 -0.13948,0.0862 -0.25359,0.43762 -0.25359,0.78093 0,0.34331 -0.074,0.81697 -0.16438,1.05258 -0.28911,0.75342 -2.47433,1.51044 -5.78874,2.00538 -0.87313,0.13038 -2.12328,0.35506 -2.77812,0.49927 -1.40123,0.30859 -1.74566,0.31179 -2.696177,0.025 z m 7.328247,-23.02009 c -0.0927,-0.14998 0.0135,-0.19434 0.24897,-0.10398 0.45837,0.17589 0.54224,0.36554 0.16165,0.36554 -0.13693,0 -0.32171,-0.1177 -0.41062,-0.26156 z m -14.471267,-0.18377 c 0.190996,-0.0764 0.4192,-0.067 0.507118,0.0209 0.08792,0.0879 -0.06835,0.15045 -0.347265,0.13896 -0.308225,-0.0127 -0.37092,-0.0754 -0.159853,-0.15985 z"
       style="fill:#d7a700;stroke-width:0.26458332;opacity:1" />
    <path
       id="path79"
       d="m 105.00178,184.97491 c -1.82986,-0.30391 -4.95517,-1.22971 -6.086418,-1.80296 -3.173081,-1.60792 -7.629705,-6.3342 -11.504629,-12.20074 -3.486593,-5.27861 -3.509536,-5.33329 -4.130303,-9.84345 -0.153853,-1.11781 -0.508707,-2.55353 -0.788564,-3.1905 -0.279858,-0.63696 -0.498615,-1.41086 -0.486126,-1.71979 0.04343,-1.07421 1.510556,2.58068 1.951795,4.86228 0.743711,3.84566 1.07169,4.62259 3.482542,8.24961 1.794722,2.70009 3.116745,4.301 5.652673,6.84515 2.935882,2.9454 3.572922,3.4484 5.635202,4.44955 5.915368,2.87167 11.142068,3.13094 17.305398,0.85845 4.32839,-1.59593 6.28967,-2.9404 7.63285,-5.23237 0.8291,-1.41475 2.84482,-7.22897 3.59455,-10.36826 0.32292,-1.35217 1.06004,-3.22774 1.8999,-4.83428 1.20072,-2.29679 1.41369,-2.56831 1.70358,-2.17187 0.52708,0.72083 0.42094,1.19575 -1.21901,5.4543 -1.67789,4.35704 -2.58985,7.0675 -3.49105,10.37576 -1.3775,5.05676 -3.13173,6.75056 -8.90198,8.59527 -5.11123,1.63403 -9.1596,2.18719 -12.25041,1.67385 z m -0.64999,-20.29987 c 4.1512,-2.03325 5.11404,-2.94839 5.91658,-5.62348 0.65102,-2.17001 0.6282,-2.20606 -2.08723,-3.29705 -1.84785,-0.74241 -2.90899,-1.40574 -5.25027,-3.28201 -0.9736,-0.78023 -1.29025,-0.89602 -2.11667,-0.77404 -0.53448,0.0789 -2.28148,0.18433 -3.882209,0.23432 -1.600729,0.05 -3.584439,0.17953 -4.408244,0.28789 -1.826086,0.24018 -2.581939,0.0696 -3.641155,-0.82165 -1.184718,-0.99688 -0.9976,-1.18881 0.442628,-0.45402 1.074487,0.54819 1.506212,0.62055 2.976563,0.49892 0.945885,-0.0782 3.390192,-0.21694 5.431793,-0.30821 4.377664,-0.19571 4.602464,-0.13102 7.919774,2.27917 1.34886,0.98001 3.13076,1.97226 4.52422,2.51931 1.2644,0.49638 2.46257,1.03834 2.6626,1.20435 0.67635,0.56132 0.40762,1.19785 -0.68729,1.62795 -0.87373,0.34321 -1.15706,0.65272 -1.68003,1.83524 -0.6675,1.50933 -1.70268,2.54579 -3.41528,3.41949 -1.0831,0.55256 -5.66983,2.35253 -5.98109,2.34717 -0.0967,-0.002 1.37723,-0.76368 3.27531,-1.69335 z m 18.90624,-13.64945 c -0.35278,-0.22799 -0.35278,-0.25648 0,-0.25648 0.21828,0 0.57547,0.11541 0.79375,0.25648 0.35278,0.22798 0.35278,0.25647 0,0.25647 -0.21828,0 -0.57547,-0.11541 -0.79375,-0.25647 z m -7.24368,-2.90715 c -1.74768,-0.74543 -2.83745,-1.46788 -2.74642,-1.82071 0.10686,-0.41419 -0.42074,-2.3529 -0.89137,-3.27541 -0.28519,-0.55903 -0.95986,-1.5029 -1.49926,-2.0975 -0.5394,-0.5946 -1.57604,-1.91312 -2.30365,-2.93006 -0.9358,-1.30792 -1.71003,-2.06405 -2.64583,-2.58396 -0.7276,-0.40425 -1.65968,-1.14976 -2.07127,-1.6567 -0.82408,-1.01497 -1.32729,-2.72074 -0.98374,-3.33464 0.16407,-0.29317 0.42397,0.0105 1.02066,1.19254 0.88337,1.74995 1.18281,2.06598 2.1831,2.30405 0.38998,0.0928 1.55032,1.1197 2.73193,2.41773 1.9973,2.19409 2.5437,2.60787 2.54288,1.92566 -5.3e-4,-0.46839 -3.33823,-5.96672 -4.25766,-7.0139 -0.42118,-0.47969 -1.00705,-1.34511 -1.30194,-1.92314 -0.2949,-0.57804 -0.65281,-1.05098 -0.79537,-1.05098 -0.14257,0 -0.25921,-0.17401 -0.25921,-0.38668 0,-0.22925 0.44477,-0.50644 1.09248,-0.68085 l 1.09248,-0.29417 -0.16688,-1.41993 c -0.0999,-0.84967 -0.0605,-1.48571 0.0981,-1.58372 0.15819,-0.0978 0.26503,0.21924 0.26503,0.78636 0,1.2027 0.48124,2.35324 1.79551,4.29265 0.57223,0.84442 1.28515,2.01666 1.58426,2.605 0.29911,0.58833 1.52266,2.4338 2.71901,4.10104 2.08155,2.90086 2.22568,3.19648 3.3486,6.8678 0.64538,2.11005 1.46265,4.33391 1.81615,4.9419 0.35349,0.608 0.64272,1.17355 0.64272,1.25678 0,0.36092 -1.32542,0.0795 -3.01035,-0.63916 z"
       style="fill:#b66400;stroke-width:0.26458332;opacity:1" />
    <path
       id="path77"
       d="m 105.00178,184.97491 c -2.07152,-0.34405 -5.094116,-1.28594 -6.479452,-2.01912 -2.418459,-1.27994 -7.915463,-6.94667 -9.799508,-10.10208 -0.360539,-0.60383 -0.258616,-0.54053 0.425983,0.26458 3.835643,4.51084 6.201891,6.80813 8.267351,8.02641 3.650836,2.15339 6.630676,2.9538 10.996616,2.9538 2.72595,0 5.83718,-0.70408 9.95047,-2.25183 4.54399,-1.70981 6.07422,-3.59701 7.93547,-9.78671 0.39383,-1.30969 0.95712,-3.15516 1.25176,-4.10104 0.59467,-1.90903 2.60324,-6.42168 2.77973,-6.24519 0.0619,0.0619 -0.73618,2.47472 -1.77362,5.36172 -1.03743,2.887 -2.11794,6.23476 -2.40114,7.43946 -1.19254,5.07297 -3.06334,6.91917 -8.90325,8.78615 -5.11123,1.63403 -9.1596,2.18719 -12.25041,1.67385 z m 5.62479,-27.23032 c 0.0507,-0.71379 0.17702,-0.89722 0.61806,-0.89764 0.57419,-5.3e-4 1.63229,0.94377 1.36121,1.21485 -0.0846,0.0846 -0.57888,0.24968 -1.09842,0.36685 l -0.94461,0.21305 z m 4.76117,-10.29367 c -1.03698,-0.51086 -1.94368,-1.13594 -2.01489,-1.38906 -0.39469,-1.40288 -0.47431,-2.23644 -0.19728,-2.06522 0.16108,0.0996 0.29288,0.33412 0.29288,0.52126 0,0.48653 0.97199,1.30061 1.30624,1.09403 0.78438,-0.48478 -0.24821,-4.28608 -1.80472,-6.64378 -0.56957,-0.86273 -2.0894,-3.16468 -3.3774,-5.11544 -1.28801,-1.95075 -2.58397,-3.93698 -2.87991,-4.41383 -0.29594,-0.47685 -0.76153,-1.11393 -1.03466,-1.41573 -0.57724,-0.63785 -0.54703,-0.691 0.52284,-0.91979 0.77366,-0.16545 0.85452,-0.0889 2.27405,2.1519 0.80953,1.2779 1.75097,2.7997 2.0921,3.38178 0.34112,0.58209 1.45071,2.18634 2.46574,3.56501 1.59804,2.17054 1.95926,2.88014 2.69379,5.29167 0.46655,1.53174 1.16138,3.60284 1.54406,4.60243 0.38268,0.99959 0.69578,1.92232 0.69578,2.05052 0,0.42475 -0.67243,0.24332 -2.57862,-0.69575 z m -4.80855,-6.92919 c -0.73924,-0.82941 -1.34231,-1.63309 -1.34014,-1.78594 0.004,-0.27533 1.34936,1.1645 2.39816,2.56636 0.91203,1.21906 0.3634,0.81437 -1.05802,-0.78042 z m -4.51908,-5.03288 c -0.63236,-0.23762 -1.89446,-1.17783 -1.76066,-1.31163 0.15853,-0.15853 2.20373,0.88458 2.41978,1.23417 0.17885,0.28937 -0.0299,0.3139 -0.65912,0.0775 z"
       style="fill:#8e4708;stroke-width:0.26458332;opacity:1" />
  </g>
</svg>
